<svg width="49" height="46" viewBox="0 0 49 46" fill="none" xmlns="http://www.w3.org/2000/svg">
<g clip-path="url(#clip0)" filter="url(#filter0_d)">
<path d="M24.8406 20.8025C29.1448 20.8025 32.4925 17.3071 32.4925 13.0173C32.4925 8.72759 28.9854 5.39111 24.6812 5.39111C20.377 5.39111 17.0293 8.88647 17.0293 13.0173C17.0293 17.3071 20.5364 20.8025 24.8406 20.8025ZM24.6812 8.56871C24.8406 8.56871 24.8406 8.56871 24.6812 8.56871C27.2318 8.56871 29.3042 10.6342 29.3042 13.1762C29.3042 15.7183 27.2318 17.6249 24.6812 17.6249C22.1306 17.6249 20.2176 15.5594 20.2176 13.1762C20.2176 10.6342 22.29 8.56871 24.6812 8.56871Z" fill="#0D5C63"/>
<path d="M48.4335 19.8487C45.4046 17.1477 41.4193 15.7178 37.2745 15.8767H35.9992C35.6804 17.1477 35.2021 18.2599 34.5645 19.2132C35.5209 19.0543 36.318 19.0543 37.2745 19.0543C40.3034 18.8954 43.3323 19.8487 45.7235 21.5964V33.0357H48.9118V20.3253L48.4335 19.8487Z" fill="#0D5C63"/>
<path d="M33.6088 5.70826C34.4058 3.8017 36.6376 2.84842 38.71 3.64282C40.623 4.43722 41.5795 6.66154 40.7824 8.72697C40.1448 10.1569 38.71 11.1102 37.2753 11.1102C36.9565 11.1102 36.4782 11.1102 36.1594 10.9513C36.3188 11.7457 36.3188 12.5401 36.3188 13.1756V14.1289C36.6376 14.1289 36.9565 14.2878 37.2753 14.2878C41.2607 14.2878 44.449 11.1102 44.449 7.29706C44.449 3.32506 41.2607 0.147461 37.4347 0.147461C34.8841 0.147461 32.6523 1.4185 31.377 3.64282C32.174 4.11946 32.9711 4.75498 33.6088 5.70826Z" fill="#0D5C63"/>
<path d="M15.4352 19.3724C14.7975 18.4191 14.3193 17.3069 14.0005 16.0359H12.7252C8.58037 15.877 4.59501 17.3069 1.56613 19.849L1.08789 20.3257V33.0361H4.27618V21.5967C6.82681 19.849 9.69628 18.8957 12.7252 19.0546C13.6816 19.0546 14.6381 19.2135 15.4352 19.3724Z" fill="#0D5C63"/>
<path d="M12.7246 14.1295C13.0435 14.1295 13.3623 14.1295 13.6811 13.9706V13.0174C13.6811 12.223 13.6811 11.4286 13.8405 10.793C13.5217 10.9519 13.0435 10.9519 12.7246 10.9519C10.6522 10.9519 8.89869 9.20424 8.89869 7.1388C8.89869 5.07336 10.6522 3.32568 12.7246 3.32568C14.3188 3.32568 15.7535 4.27896 16.3912 5.70888C17.0288 4.91448 17.9853 4.12008 18.7824 3.48456C16.71 0.148085 12.4058 -0.964074 9.0581 1.10136C5.7104 3.1668 4.59449 7.45656 6.66688 10.793C7.9422 12.8585 10.174 14.1295 12.7246 14.1295Z" fill="#0D5C63"/>
<path d="M37.9128 29.3817L37.594 28.9051C34.4057 25.4097 29.9421 23.3443 25.1596 23.5032C20.3772 23.3443 15.7542 25.4097 12.5659 28.9051L12.2471 29.3817V41.4566C12.2471 42.8865 13.363 44.1576 14.9571 44.1576H35.3622C36.7969 44.1576 38.0722 42.8865 38.0722 41.4566V29.3817H37.9128ZM34.7245 40.98H15.4354V30.4939C17.986 27.9518 21.4931 26.6808 25.1596 26.6808C28.6668 26.5219 32.1739 27.9518 34.7245 30.4939V40.98Z" fill="#0D5C63"/>
</g>
<defs>
<filter id="filter0_d" x="-3" y="0" width="56" height="52.2105" filterUnits="userSpaceOnUse" color-interpolation-filters="sRGB">
<feFlood flood-opacity="0" result="BackgroundImageFix"/>
<feColorMatrix in="SourceAlpha" type="matrix" values="0 0 0 0 0 0 0 0 0 0 0 0 0 0 0 0 0 0 127 0" result="hardAlpha"/>
<feOffset dy="4"/>
<feGaussianBlur stdDeviation="2"/>
<feComposite in2="hardAlpha" operator="out"/>
<feColorMatrix type="matrix" values="0 0 0 0 0 0 0 0 0 0 0 0 0 0 0 0 0 0 0.25 0"/>
<feBlend mode="normal" in2="BackgroundImageFix" result="effect1_dropShadow"/>
<feBlend mode="normal" in="SourceGraphic" in2="effect1_dropShadow" result="shape"/>
</filter>
<clipPath id="clip0">
<rect width="48" height="44.2105" fill="white" transform="translate(1)"/>
</clipPath>
</defs>
</svg>
